<?xml version="1.0" encoding="UTF-8"?>
<svg width="27px" height="20px" viewBox="0 0 27 20" version="1.1" xmlns="http://www.w3.org/2000/svg" xmlns:xlink="http://www.w3.org/1999/xlink">
    <!-- Generator: Sketch 51.2 (57519) - http://www.bohemiancoding.com/sketch -->
    <title>Email</title>
    <desc>Created with Sketch.</desc>
    <defs></defs>
    <g id="Page-1" stroke="none" stroke-width="1" fill="none" fill-rule="evenodd">
        <g id="Contact-us" transform="translate(-958.000000, -475.000000)" fill="#00C1D5">
            <g id="Left-Content" transform="translate(917.000000, 268.000000)">
                <g id="Group-4" transform="translate(41.000000, 207.000000)">
                    <path d="M26.6666667,16.6664949 C26.6666667,17.2509781 26.5021331,17.7930745 26.2388794,18.2699078 L17.8190199,8.8494104 L26.1476474,1.56288106 C26.4715621,2.0770174 26.6666667,2.68080473 26.6666667,3.33343638 L26.6666667,16.6664949 Z M13.3334707,10.5599236 L24.9220612,0.419951293 C24.446597,0.159654311 23.9112274,0 23.333402,0 L3.33326463,0 C2.75495833,0 2.21931397,0.159654311 1.74563591,0.419951293 L13.3334707,10.5599236 Z M16.5641681,9.94644986 L13.881687,12.2950307 C13.7247103,12.4316712 13.5293996,12.5000945 13.3334707,12.5000945 C13.137267,12.5000945 12.9419564,12.4316712 12.7849797,12.2950307 L10.1016742,9.94644986 L1.57553774,19.4871689 C2.08645054,19.8078515 2.68543517,20 3.33326463,20 L23.333402,20 C23.9809567,20 24.5802161,19.8078515 25.0911289,19.4871689 L16.5641681,9.94644986 Z M0.519294051,1.56288106 C0.19537932,2.0770174 0,2.68080473 0,3.33343638 L0,16.6664949 C0,17.2512529 0.163709184,17.7930745 0.427993377,18.2699078 L8.84682234,8.84783034 L0.519294051,1.56288106 Z" id="Email"></path>
                </g>
            </g>
        </g>
    </g>
</svg>