<?xml version="1.0" encoding="UTF-8"?>
<svg width="151px" height="65px" viewBox="0 0 151 65" version="1.1" xmlns="http://www.w3.org/2000/svg" xmlns:xlink="http://www.w3.org/1999/xlink">
    <!-- Generator: Sketch 52.2 (67145) - http://www.bohemiancoding.com/sketch -->
    <title>Macquarie small</title>
    <desc>Created with Sketch.</desc>
    <g id="Page-1" stroke="none" stroke-width="1" fill="none" fill-rule="evenodd">
        <g id="Dashboard" transform="translate(-1079.000000, -568.000000)">
            <g id="Macquarie-small" transform="translate(1079.000000, 568.000000)">
                <rect id="Bg-Copy-3" fill="#FFFFFF" x="0" y="0" width="151" height="65" rx="8"></rect>
                <path d="M8,1 C4.13400675,1 1,4.13400675 1,8 L1,57 C1,60.8659932 4.13400675,64 8,64 L143,64 C146.865993,64 150,60.8659932 150,57 L150,8 C150,4.13400675 146.865993,1 143,1 L8,1 Z M8,0 L143,0 C147.418278,-8.11624501e-16 151,3.581722 151,8 L151,57 C151,61.418278 147.418278,65 143,65 L8,65 C3.581722,65 5.41083001e-16,61.418278 0,57 L0,8 C-5.41083001e-16,3.581722 3.581722,8.11624501e-16 8,0 Z" id="Bg-Copy-2" fill="#E2E2E2" fill-rule="nonzero"></path>
                <path d="M72.8515,29.2073333 L72.8515,38.3333333 L70.6285,38.3333333 L70.6285,32.6263333 L68.6525,38.3333333 L66.7285,38.3333333 L64.7395,32.6133333 L64.7395,38.3333333 L62.5165,38.3333333 L62.5165,29.2073333 L65.2335,29.2073333 L67.7165,35.5643333 L70.1475,29.2073333 L72.8515,29.2073333 Z M77.1415,30.9883333 C77.6961694,30.9883333 78.1728313,31.1139987 78.5715,31.3653333 C78.9701687,31.6166679 79.2648324,31.9589978 79.4555,32.3923333 L79.4555,31.0793333 L81.6655,31.0793333 L81.6655,38.3333333 L79.4555,38.3333333 L79.4555,37.0203333 C79.2648324,37.4536688 78.9701687,37.7959987 78.5715,38.0473333 C78.1728313,38.2986679 77.6961694,38.4243333 77.1415,38.4243333 C76.543497,38.4243333 76.0083357,38.2748348 75.536,37.9758333 C75.0636643,37.6768318 74.6910014,37.2456695 74.418,36.6823333 C74.1449986,36.1189972 74.0085,35.4603371 74.0085,34.7063333 C74.0085,33.9436629 74.1449986,33.2828361 74.418,32.7238333 C74.6910014,32.1648305 75.0636643,31.7358348 75.536,31.4368333 C76.0083357,31.1378318 76.543497,30.9883333 77.1415,30.9883333 Z M77.8565,32.9383333 C77.3798309,32.9383333 76.9963348,33.0943318 76.706,33.4063333 C76.4156652,33.7183349 76.2705,34.1516639 76.2705,34.7063333 C76.2705,35.2610028 76.4156652,35.6943318 76.706,36.0063333 C76.9963348,36.3183349 77.3798309,36.4743333 77.8565,36.4743333 C78.3245023,36.4743333 78.7079985,36.3140016 79.007,35.9933333 C79.3060015,35.6726651 79.4555,35.2436694 79.4555,34.7063333 C79.4555,34.1603306 79.3060015,33.7291682 79.007,33.4128333 C78.7079985,33.0964984 78.3245023,32.9383333 77.8565,32.9383333 Z M86.4755,30.9883333 C87.4115047,30.9883333 88.1958302,31.2461641 88.8285,31.7618333 C89.4611698,32.2775026 89.8598325,32.9859955 90.0245,33.8873333 L87.6715,33.8873333 C87.6021663,33.5753318 87.4591677,33.3326675 87.2425,33.1593333 C87.0258322,32.9859991 86.752835,32.8993333 86.4235,32.8993333 C86.033498,32.8993333 85.7128346,33.0531651 85.4615,33.3608333 C85.2101654,33.6685015 85.0845,34.1169971 85.0845,34.7063333 C85.0845,35.2956696 85.2101654,35.7441651 85.4615,36.0518333 C85.7128346,36.3595015 86.033498,36.5133333 86.4235,36.5133333 C86.752835,36.5133333 87.0258322,36.4266675 87.2425,36.2533333 C87.4591677,36.0799991 87.6021663,35.8373349 87.6715,35.5253333 L90.0245,35.5253333 C89.8598325,36.4266712 89.4611698,37.1351641 88.8285,37.6508333 C88.1958302,38.1665026 87.4115047,38.4243333 86.4755,38.4243333 C85.7648298,38.4243333 85.1343361,38.2748348 84.584,37.9758333 C84.0336639,37.6768318 83.6025016,37.2456695 83.2905,36.6823333 C82.9784984,36.1189972 82.8225,35.4603371 82.8225,34.7063333 C82.8225,33.9436629 82.9763318,33.2828361 83.284,32.7238333 C83.5916682,32.1648305 84.0228306,31.7358348 84.5775,31.4368333 C85.1321694,31.1378318 85.7648298,30.9883333 86.4755,30.9883333 Z M94.0935,31.0143333 C95.0641715,31.0143333 95.7834977,31.3869963 96.2515,32.1323333 L96.2515,31.0793333 L98.4615,31.0793333 L98.4615,41.7913333 L96.2515,41.7913333 L96.2515,37.1633333 C95.7488308,37.9953375 95.0295047,38.4113333 94.0935,38.4113333 C93.4868303,38.4113333 92.9343358,38.2575015 92.436,37.9498333 C91.9376642,37.6421651 91.5411681,37.2110028 91.2465,36.6563333 C90.9518319,36.1016639 90.8045,35.4646703 90.8045,34.7453333 C90.8045,34.0259964 90.9518319,33.3825028 91.2465,32.8148333 C91.5411681,32.2471638 91.9398308,31.8051682 92.4425,31.4888333 C92.9451692,31.1724984 93.495497,31.0143333 94.0935,31.0143333 Z M94.6525,32.9513333 C94.2191645,32.9513333 93.8465016,33.1051651 93.5345,33.4128333 C93.2224984,33.7205015 93.0665,34.1646638 93.0665,34.7453333 C93.0665,35.3173362 93.2203318,35.7484985 93.528,36.0388333 C93.8356682,36.3291681 94.2104978,36.4743333 94.6525,36.4743333 C95.0858355,36.4743333 95.4606651,36.3205015 95.777,36.0128333 C96.0933349,35.7051651 96.2515,35.2696695 96.2515,34.7063333 C96.2515,34.1429972 96.0933349,33.7096682 95.777,33.4063333 C95.4606651,33.1029985 95.0858355,32.9513333 94.6525,32.9513333 Z M107.2105,31.0793333 L107.2105,38.3333333 L104.9745,38.3333333 L104.9745,37.0203333 C104.766499,37.4450021 104.456669,37.7829987 104.045,38.0343333 C103.633331,38.2856679 103.154503,38.4113333 102.6085,38.4113333 C101.776496,38.4113333 101.115669,38.1340028 100.626,37.5793333 C100.136331,37.0246639 99.8915,36.2620049 99.8915,35.2913333 L99.8915,31.0793333 L102.1015,31.0793333 L102.1015,35.0183333 C102.1015,35.5123358 102.229332,35.895832 102.485,36.1688333 C102.740668,36.4418347 103.085164,36.5783333 103.5185,36.5783333 C103.969169,36.5783333 104.324499,36.4353348 104.5845,36.1493333 C104.844501,35.8633319 104.9745,35.4560026 104.9745,34.9273333 L104.9745,31.0793333 L107.2105,31.0793333 Z M111.5005,30.9883333 C112.055169,30.9883333 112.531831,31.1139987 112.9305,31.3653333 C113.329169,31.6166679 113.623832,31.9589978 113.8145,32.3923333 L113.8145,31.0793333 L116.0245,31.0793333 L116.0245,38.3333333 L113.8145,38.3333333 L113.8145,37.0203333 C113.623832,37.4536688 113.329169,37.7959987 112.9305,38.0473333 C112.531831,38.2986679 112.055169,38.4243333 111.5005,38.4243333 C110.902497,38.4243333 110.367336,38.2748348 109.895,37.9758333 C109.422664,37.6768318 109.050001,37.2456695 108.777,36.6823333 C108.503999,36.1189972 108.3675,35.4603371 108.3675,34.7063333 C108.3675,33.9436629 108.503999,33.2828361 108.777,32.7238333 C109.050001,32.1648305 109.422664,31.7358348 109.895,31.4368333 C110.367336,31.1378318 110.902497,30.9883333 111.5005,30.9883333 Z M112.2155,32.9383333 C111.738831,32.9383333 111.355335,33.0943318 111.065,33.4063333 C110.774665,33.7183349 110.6295,34.1516639 110.6295,34.7063333 C110.6295,35.2610028 110.774665,35.6943318 111.065,36.0063333 C111.355335,36.3183349 111.738831,36.4743333 112.2155,36.4743333 C112.683502,36.4743333 113.066999,36.3140016 113.366,35.9933333 C113.665001,35.6726651 113.8145,35.2436694 113.8145,34.7063333 C113.8145,34.1603306 113.665001,33.7291682 113.366,33.4128333 C113.066999,33.0964984 112.683502,32.9383333 112.2155,32.9383333 Z M119.7815,32.4443333 C120.058835,32.0023311 120.416331,31.6513346 120.854,31.3913333 C121.291669,31.131332 121.766164,31.0013333 122.2775,31.0013333 L122.2775,33.3803333 L121.6405,33.3803333 C121.051164,33.3803333 120.594002,33.5059987 120.269,33.7573333 C119.943998,34.0086679 119.7815,34.4333303 119.7815,35.0313333 L119.7815,38.3333333 L117.5585,38.3333333 L117.5585,31.0793333 L119.7815,31.0793333 L119.7815,32.4443333 Z M123.0055,29.0383333 C123.0055,28.7003316 123.126832,28.4208344 123.3695,28.1998333 C123.612168,27.9788322 123.932831,27.8683333 124.3315,27.8683333 C124.730169,27.8683333 125.050832,27.9788322 125.2935,28.1998333 C125.536168,28.4208344 125.6575,28.7003316 125.6575,29.0383333 C125.6575,29.3676683 125.536168,29.6428322 125.2935,29.8638333 C125.050832,30.0848344 124.730169,30.1953333 124.3315,30.1953333 C123.932831,30.1953333 123.612168,30.0848344 123.3695,29.8638333 C123.126832,29.6428322 123.0055,29.3676683 123.0055,29.0383333 Z M125.4365,31.0793333 L125.4365,38.3333333 L123.2135,38.3333333 L123.2135,31.0793333 L125.4365,31.0793333 Z M133.8605,34.5113333 C133.8605,34.6933342 133.838834,34.8926656 133.7955,35.1093333 L128.7645,35.1093333 C128.7905,35.6553361 128.929165,36.0474988 129.1805,36.2858333 C129.431835,36.5241679 129.752498,36.6433333 130.1425,36.6433333 C130.471835,36.6433333 130.744832,36.5610008 130.9615,36.3963333 C131.178168,36.2316658 131.321166,36.0193346 131.3905,35.7593333 L133.7435,35.7593333 C133.648166,36.2706692 133.440168,36.7278313 133.1195,37.1308333 C132.798832,37.5338353 132.391502,37.8501655 131.8975,38.0798333 C131.403498,38.3095011 130.85317,38.4243333 130.2465,38.4243333 C129.53583,38.4243333 128.905336,38.2748348 128.355,37.9758333 C127.804664,37.6768318 127.373502,37.2456695 127.0615,36.6823333 C126.749498,36.1189972 126.5935,35.4603371 126.5935,34.7063333 C126.5935,33.9436629 126.747332,33.2828361 127.055,32.7238333 C127.362668,32.1648305 127.793831,31.7358348 128.3485,31.4368333 C128.903169,31.1378318 129.53583,30.9883333 130.2465,30.9883333 C130.965837,30.9883333 131.598497,31.1356652 132.1445,31.4303333 C132.690503,31.7250015 133.112999,32.1388307 133.412,32.6718333 C133.711001,33.204836 133.8605,33.8179965 133.8605,34.5113333 Z M131.6115,34.1733333 C131.620167,33.6966643 131.492335,33.3391679 131.228,33.1008333 C130.963665,32.8624988 130.636502,32.7433333 130.2465,32.7433333 C129.839165,32.7433333 129.501168,32.8646655 129.2325,33.1073333 C128.963832,33.3500012 128.812167,33.705331 128.7775,34.1733333 L131.6115,34.1733333 Z" id="Macquarie" fill="#00000E"></path>
                <path d="M29.6237857,18.0104231 C30.7949517,17.9545285 32.0691894,18.1313792 33.1080775,18.3510635 C34.2007666,18.582024 35.1509839,18.9155255 36.0392287,19.3047593 C38.7596251,20.4970414 40.8362685,22.2728496 42.4158379,24.5892694 C43.4526224,26.1097798 44.3314015,27.8611697 44.7160999,30.0683963 C44.9068715,31.1636538 45.0424666,32.3837614 44.9877755,33.5621712 C44.9309,34.78958 44.7677167,35.9090937 44.4831774,36.9294736 C44.3437798,37.4290363 44.1599659,37.909048 43.9882068,38.3795683 C43.4768936,39.7798527 42.7073349,41.0144815 41.8626974,42.0874299 C41.2898972,42.8150327 40.6556909,43.450235 39.979819,44.0825168 C38.6276707,45.3472427 36.9994781,46.2774125 35.117247,46.992441 C33.6985956,47.5313489 32.1311619,47.9170133 30.2741728,47.9753416 C28.5215498,48.0304249 26.4861674,48.0156603 24.9166302,47.6931106 C23.8467559,47.473264 22.8710539,47.164262 21.9661428,46.7588034 C20.1922421,45.964111 18.6846773,44.8877554 17.3656188,43.5861991 C16.0629838,42.3007865 14.991006,40.7764632 14.1918365,38.9828888 C13.9870685,38.5233203 13.7934653,38.0754337 13.6483235,37.5814686 C13.5018064,37.0830417 13.3772143,36.5608453 13.2697738,36.0146362 C12.9570799,34.4252514 12.9049777,32.3480668 13.172689,30.6717168 C13.2642723,30.0981689 13.3911298,29.6111804 13.5318218,29.0854146 C13.673161,28.5572151 13.8011511,28.0578147 13.9880393,27.5964615 C14.5440115,26.2235159 15.2793478,24.9922132 16.1426742,23.9177234 C16.7200859,23.1991255 17.3233869,22.4853138 17.9964271,21.8934318 C18.6892888,21.2841081 19.4132177,20.6824101 20.2287298,20.2389854 C21.0732056,19.7797414 21.8998016,19.3521359 22.8589183,18.9835887 C23.7965145,18.6232351 24.8293348,18.3425455 25.9453243,18.1855702 C27.0631746,18.0283515 28.2779479,18.0105853 29.6043687,18.010342 C29.6107601,18.0104231 29.6173133,18.0107476 29.6237857,18.0104231 Z M35.5538857,20.0931241 C35.8450592,20.2621057 36.13421,20.4135646 36.4079891,20.5991767 C37.4861156,21.3301867 38.4970108,22.1478373 39.3390595,23.1003162 C41.46109,25.5006184 43.0258539,28.4783624 43.1339416,32.8713177 C43.1753645,34.5535087 42.87157,36.1788316 42.4060485,37.5232214 C41.9296859,38.8988441 41.3590701,40.1107582 40.6202549,41.1824897 C39.1339679,43.3383647 37.2062687,45.0106585 34.8259926,46.2626479 C36.9720516,45.5588146 38.632525,44.3314058 40.0766611,42.9440201 C41.0471852,42.011741 41.8614029,40.9284088 42.5419672,39.6935366 C42.8835438,39.0736667 43.1375823,38.3920614 43.4154875,37.7081846 C43.9714597,36.3395386 44.2403845,34.6330104 44.2404654,32.8519291 C44.2404654,31.011546 43.9039048,29.3960391 43.3862812,28.0053273 C42.8719745,26.6231336 42.154518,25.3935345 41.3286502,24.3460591 C39.6406695,22.205192 37.4979275,20.5492042 34.6608676,19.5870715 C34.6549616,19.5876393 34.6493792,19.5885317 34.6511591,19.5968064 C34.9602123,19.7544306 35.2614178,19.9234123 35.5538857,20.0931241 Z M21.6650991,45.4548945 C20.5658567,44.7461126 19.5763201,43.9123183 18.7243203,42.953755 C18.2951246,42.4709039 17.8804917,41.966636 17.5207926,41.4258622 C16.8035788,40.3473974 16.1232572,39.1973811 15.6573312,37.8443921 C15.1928614,36.4957026 14.8590516,34.9828178 14.8614787,33.2216931 C14.8651194,30.5748545 15.4765108,28.3855564 16.3270544,26.5552327 C16.6119173,25.9422584 16.9807585,25.3918309 17.3461209,24.8423768 C18.4268363,23.2172973 19.82243,21.8467043 21.3933426,20.7257304 C21.9270662,20.3448524 22.5173417,20.0622158 23.0821324,19.723279 C22.7616717,19.7990489 22.3488187,19.987906 22.0436489,20.1417175 C21.7040948,20.3128895 21.3785372,20.444554 21.0828332,20.6088305 C19.236847,21.6348891 17.7224054,22.9948548 16.5308515,24.6282901 C16.1288396,25.1793666 15.732491,25.7426118 15.4049917,26.3508809 C14.4092255,28.2003499 13.7356189,30.4500044 13.7356189,33.2606327 C13.7356189,35.1132655 14.1291359,36.6555172 14.6285562,38.0585599 C14.8729671,38.7451949 15.1984438,39.3884285 15.5603273,39.9855025 C15.9253661,40.5877684 16.2958254,41.173566 16.7153126,41.6886235 C18.4524829,43.8216214 20.4843055,45.496349 23.3830952,46.4378762 C22.8170909,46.0845804 22.2165407,45.8105429 21.6650991,45.4548945 Z M39.8965847,22.3600326 C39.9121847,22.3440326 39.9123847,22.3153326 39.8845847,22.3120326 C39.8690847,22.3280326 39.8687847,22.3567326 39.8965847,22.3600326 Z M27.4690699,26.6136421 C26.3071269,26.9999554 25.3572332,27.7303975 24.6544204,28.5503196 C23.7096237,29.6525538 22.9354534,31.1756602 22.9753391,33.2022233 C22.9954033,34.2187903 23.2480664,35.0452835 23.5673945,35.781242 C23.8139089,36.3493546 24.123852,36.8190636 24.4797487,37.2508065 C24.6019946,37.3991015 24.7290947,37.5198954 24.8680069,37.6595101 C25.637161,38.4327857 26.5978149,39.1259918 27.8087857,39.4696338 C28.1960731,39.5795571 28.6903155,39.723877 29.1287342,39.6642507 C30.8731859,39.4272059 32.237227,38.5246183 33.2342068,37.4356073 C34.2330473,36.3445683 34.9534164,34.817 34.9229965,32.8129083 C34.8924957,30.8050038 34.0733429,29.3542602 33.0498266,28.3361517 C32.2646534,27.5551693 31.3235783,26.905608 30.1089668,26.526028 C29.7770987,26.4223513 29.1420024,26.2515849 28.7501845,26.2924715 C28.2992257,26.3395235 27.8591889,26.4839245 27.4690699,26.6136421 Z M34.5056937,28.9006949 C35.1765496,29.9600955 35.6919079,31.2379636 35.7091405,32.8908687 C35.7262921,34.5319297 35.2394929,35.9155836 34.5639446,36.9588405 C33.9613718,37.8892537 33.1933503,38.6390034 32.3025165,39.2556283 C32.1837495,39.337807 32.0613417,39.4205537 31.9531731,39.5183895 C33.430318,39.0724499 34.4959044,38.2439286 35.3597971,37.1729272 C36.1903574,36.1433803 36.8586243,34.6592946 36.8156642,32.861664 C36.7706816,30.9835581 36.1665716,29.7136403 35.2821293,28.6379337 C34.4348219,27.607251 33.311551,26.7229164 31.788129,26.3606158 C31.782223,26.3611836 31.7766406,26.362076 31.7784205,26.3703507 C32.8713524,27.0117184 33.8271521,27.8289634 34.5056937,28.9006949 Z M23.4121397,37.1047829 C22.7567365,36.0927588 22.1935639,34.7589962 22.1989036,33.1146092 C22.2044051,31.4328238 22.6810913,30.1292394 23.3344719,29.0465562 C23.9916549,27.9575452 24.8953524,27.1352705 25.9355349,26.4480676 C25.9258264,26.4480676 25.916118,26.4480676 25.9064095,26.4480676 C25.173743,26.6703479 24.5227896,26.9924109 23.9749887,27.4115795 C22.8817332,28.248132 22.0430825,29.2674573 21.5097635,30.6815328 C21.2487672,31.3735221 21.0746619,32.2471483 21.1021692,33.1242629 C21.1595301,34.9562091 21.7660673,36.2739091 22.6259148,37.3382583 C23.045402,37.8575342 23.56521,38.3312994 24.1206159,38.7104738 C24.6870247,39.0971927 25.329645,39.4273681 26.0907897,39.6058413 C25.0379052,38.973235 24.0986909,38.1648326 23.4121397,37.1047829 Z" id="Shape" fill="#000000" fill-rule="nonzero"></path>
            </g>
        </g>
    </g>
</svg>