<?xml version="1.0" encoding="UTF-8"?>
<svg width="151px" height="65px" viewBox="0 0 151 65" version="1.1" xmlns="http://www.w3.org/2000/svg" xmlns:xlink="http://www.w3.org/1999/xlink">
    <!-- Generator: Sketch 52.1 (67048) - http://www.bohemiancoding.com/sketch -->
    <title>Macquarie small</title>
    <desc>Created with Sketch.</desc>
    <g id="Page-1" stroke="none" stroke-width="1" fill="none" fill-rule="evenodd">
        <g id="Dashboard" transform="translate(-1079.000000, -568.000000)">
            <g id="Macquarie-small" transform="translate(1079.000000, 568.000000)">
                <rect id="Bg-Copy-2" stroke="#E2E2E2" fill="#FFFFFF" x="0.5" y="0.5" width="150" height="64" rx="4.33333333"></rect>
                <text id="Macquarie" font-family="Poppins-Bold, Poppins" font-size="13" font-weight="bold" line-spacing="17.3333333" fill="#00000E">
                    <tspan x="54.4305" y="37.9293111">Macquarie</tspan>
                </text>
                <path d="M29.6237857,18.0104231 C30.7949517,17.9545285 32.0691894,18.1313792 33.1080775,18.3510635 C34.2007666,18.582024 35.1509839,18.9155255 36.0392287,19.3047593 C38.7596251,20.4970414 40.8362685,22.2728496 42.4158379,24.5892694 C43.4526224,26.1097798 44.3314015,27.8611697 44.7160999,30.0683963 C44.9068715,31.1636538 45.0424666,32.3837614 44.9877755,33.5621712 C44.9309,34.78958 44.7677167,35.9090937 44.4831774,36.9294736 C44.3437798,37.4290363 44.1599659,37.909048 43.9882068,38.3795683 C43.4768936,39.7798527 42.7073349,41.0144815 41.8626974,42.0874299 C41.2898972,42.8150327 40.6556909,43.450235 39.979819,44.0825168 C38.6276707,45.3472427 36.9994781,46.2774125 35.117247,46.992441 C33.6985956,47.5313489 32.1311619,47.9170133 30.2741728,47.9753416 C28.5215498,48.0304249 26.4861674,48.0156603 24.9166302,47.6931106 C23.8467559,47.473264 22.8710539,47.164262 21.9661428,46.7588034 C20.1922421,45.964111 18.6846773,44.8877554 17.3656188,43.5861991 C16.0629838,42.3007865 14.991006,40.7764632 14.1918365,38.9828888 C13.9870685,38.5233203 13.7934653,38.0754337 13.6483235,37.5814686 C13.5018064,37.0830417 13.3772143,36.5608453 13.2697738,36.0146362 C12.9570799,34.4252514 12.9049777,32.3480668 13.172689,30.6717168 C13.2642723,30.0981689 13.3911298,29.6111804 13.5318218,29.0854146 C13.673161,28.5572151 13.8011511,28.0578147 13.9880393,27.5964615 C14.5440115,26.2235159 15.2793478,24.9922132 16.1426742,23.9177234 C16.7200859,23.1991255 17.3233869,22.4853138 17.9964271,21.8934318 C18.6892888,21.2841081 19.4132177,20.6824101 20.2287298,20.2389854 C21.0732056,19.7797414 21.8998016,19.3521359 22.8589183,18.9835887 C23.7965145,18.6232351 24.8293348,18.3425455 25.9453243,18.1855702 C27.0631746,18.0283515 28.2779479,18.0105853 29.6043687,18.010342 C29.6107601,18.0104231 29.6173133,18.0107476 29.6237857,18.0104231 Z M35.5538857,20.0931241 C35.8450592,20.2621057 36.13421,20.4135646 36.4079891,20.5991767 C37.4861156,21.3301867 38.4970108,22.1478373 39.3390595,23.1003162 C41.46109,25.5006184 43.0258539,28.4783624 43.1339416,32.8713177 C43.1753645,34.5535087 42.87157,36.1788316 42.4060485,37.5232214 C41.9296859,38.8988441 41.3590701,40.1107582 40.6202549,41.1824897 C39.1339679,43.3383647 37.2062687,45.0106585 34.8259926,46.2626479 C36.9720516,45.5588146 38.632525,44.3314058 40.0766611,42.9440201 C41.0471852,42.011741 41.8614029,40.9284088 42.5419672,39.6935366 C42.8835438,39.0736667 43.1375823,38.3920614 43.4154875,37.7081846 C43.9714597,36.3395386 44.2403845,34.6330104 44.2404654,32.8519291 C44.2404654,31.011546 43.9039048,29.3960391 43.3862812,28.0053273 C42.8719745,26.6231336 42.154518,25.3935345 41.3286502,24.3460591 C39.6406695,22.205192 37.4979275,20.5492042 34.6608676,19.5870715 C34.6549616,19.5876393 34.6493792,19.5885317 34.6511591,19.5968064 C34.9602123,19.7544306 35.2614178,19.9234123 35.5538857,20.0931241 Z M21.6650991,45.4548945 C20.5658567,44.7461126 19.5763201,43.9123183 18.7243203,42.953755 C18.2951246,42.4709039 17.8804917,41.966636 17.5207926,41.4258622 C16.8035788,40.3473974 16.1232572,39.1973811 15.6573312,37.8443921 C15.1928614,36.4957026 14.8590516,34.9828178 14.8614787,33.2216931 C14.8651194,30.5748545 15.4765108,28.3855564 16.3270544,26.5552327 C16.6119173,25.9422584 16.9807585,25.3918309 17.3461209,24.8423768 C18.4268363,23.2172973 19.82243,21.8467043 21.3933426,20.7257304 C21.9270662,20.3448524 22.5173417,20.0622158 23.0821324,19.723279 C22.7616717,19.7990489 22.3488187,19.987906 22.0436489,20.1417175 C21.7040948,20.3128895 21.3785372,20.444554 21.0828332,20.6088305 C19.236847,21.6348891 17.7224054,22.9948548 16.5308515,24.6282901 C16.1288396,25.1793666 15.732491,25.7426118 15.4049917,26.3508809 C14.4092255,28.2003499 13.7356189,30.4500044 13.7356189,33.2606327 C13.7356189,35.1132655 14.1291359,36.6555172 14.6285562,38.0585599 C14.8729671,38.7451949 15.1984438,39.3884285 15.5603273,39.9855025 C15.9253661,40.5877684 16.2958254,41.173566 16.7153126,41.6886235 C18.4524829,43.8216214 20.4843055,45.496349 23.3830952,46.4378762 C22.8170909,46.0845804 22.2165407,45.8105429 21.6650991,45.4548945 Z M39.8965847,22.3600326 C39.9121847,22.3440326 39.9123847,22.3153326 39.8845847,22.3120326 C39.8690847,22.3280326 39.8687847,22.3567326 39.8965847,22.3600326 Z M27.4690699,26.6136421 C26.3071269,26.9999554 25.3572332,27.7303975 24.6544204,28.5503196 C23.7096237,29.6525538 22.9354534,31.1756602 22.9753391,33.2022233 C22.9954033,34.2187903 23.2480664,35.0452835 23.5673945,35.781242 C23.8139089,36.3493546 24.123852,36.8190636 24.4797487,37.2508065 C24.6019946,37.3991015 24.7290947,37.5198954 24.8680069,37.6595101 C25.637161,38.4327857 26.5978149,39.1259918 27.8087857,39.4696338 C28.1960731,39.5795571 28.6903155,39.723877 29.1287342,39.6642507 C30.8731859,39.4272059 32.237227,38.5246183 33.2342068,37.4356073 C34.2330473,36.3445683 34.9534164,34.817 34.9229965,32.8129083 C34.8924957,30.8050038 34.0733429,29.3542602 33.0498266,28.3361517 C32.2646534,27.5551693 31.3235783,26.905608 30.1089668,26.526028 C29.7770987,26.4223513 29.1420024,26.2515849 28.7501845,26.2924715 C28.2992257,26.3395235 27.8591889,26.4839245 27.4690699,26.6136421 Z M34.5056937,28.9006949 C35.1765496,29.9600955 35.6919079,31.2379636 35.7091405,32.8908687 C35.7262921,34.5319297 35.2394929,35.9155836 34.5639446,36.9588405 C33.9613718,37.8892537 33.1933503,38.6390034 32.3025165,39.2556283 C32.1837495,39.337807 32.0613417,39.4205537 31.9531731,39.5183895 C33.430318,39.0724499 34.4959044,38.2439286 35.3597971,37.1729272 C36.1903574,36.1433803 36.8586243,34.6592946 36.8156642,32.861664 C36.7706816,30.9835581 36.1665716,29.7136403 35.2821293,28.6379337 C34.4348219,27.607251 33.311551,26.7229164 31.788129,26.3606158 C31.782223,26.3611836 31.7766406,26.362076 31.7784205,26.3703507 C32.8713524,27.0117184 33.8271521,27.8289634 34.5056937,28.9006949 Z M23.4121397,37.1047829 C22.7567365,36.0927588 22.1935639,34.7589962 22.1989036,33.1146092 C22.2044051,31.4328238 22.6810913,30.1292394 23.3344719,29.0465562 C23.9916549,27.9575452 24.8953524,27.1352705 25.9355349,26.4480676 C25.9258264,26.4480676 25.916118,26.4480676 25.9064095,26.4480676 C25.173743,26.6703479 24.5227896,26.9924109 23.9749887,27.4115795 C22.8817332,28.248132 22.0430825,29.2674573 21.5097635,30.6815328 C21.2487672,31.3735221 21.0746619,32.2471483 21.1021692,33.1242629 C21.1595301,34.9562091 21.7660673,36.2739091 22.6259148,37.3382583 C23.045402,37.8575342 23.56521,38.3312994 24.1206159,38.7104738 C24.6870247,39.0971927 25.329645,39.4273681 26.0907897,39.6058413 C25.0379052,38.973235 24.0986909,38.1648326 23.4121397,37.1047829 Z" id="Shape" fill="#000000" fill-rule="nonzero"></path>
            </g>
        </g>
    </g>
</svg>