<?xml version="1.0" encoding="UTF-8"?>
<svg width="22px" height="17px" viewBox="0 0 22 17" version="1.1" xmlns="http://www.w3.org/2000/svg" xmlns:xlink="http://www.w3.org/1999/xlink">
    <!-- Generator: Sketch 51.3 (57544) - http://www.bohemiancoding.com/sketch -->
    <title>Check - FontAwesome Copy 8</title>
    <desc>Created with Sketch.</desc>
    <defs></defs>
    <g id="Page-1" stroke="none" stroke-width="1" fill="none" fill-rule="evenodd">
        <g id="Stage-3---Verify" transform="translate(-799.000000, -570.000000)" fill="#00D78F">
            <path d="M820.379491,574.008913 C820.379491,574.343735 820.245562,574.678557 820.004491,574.919628 L808.48662,586.437499 C808.245548,586.678571 807.910726,586.8125 807.575904,586.8125 C807.241082,586.8125 806.906261,586.678571 806.665189,586.437499 L799.995538,579.767849 C799.754466,579.526777 799.620538,579.191955 799.620538,578.857133 C799.620538,578.522311 799.754466,578.187489 799.995538,577.946418 L801.816969,576.124987 C802.058041,575.883915 802.392862,575.749987 802.727684,575.749987 C803.062506,575.749987 803.397328,575.883915 803.6384,576.124987 L807.575904,580.075885 L816.361629,571.276767 C816.602701,571.035695 816.937523,570.901767 817.272344,570.901767 C817.607166,570.901767 817.941988,571.035695 818.18306,571.276767 L820.004491,573.098198 C820.245562,573.339269 820.379491,573.674091 820.379491,574.008913 Z" id="Check---FontAwesome-Copy-8"></path>
        </g>
    </g>
</svg>