<?xml version="1.0" encoding="UTF-8"?>
<svg width="24px" height="24px" viewBox="0 0 24 24" version="1.1" xmlns="http://www.w3.org/2000/svg" xmlns:xlink="http://www.w3.org/1999/xlink">
    <!-- Generator: Sketch 51.2 (57519) - http://www.bohemiancoding.com/sketch -->
    <title>Phone</title>
    <desc>Created with Sketch.</desc>
    <defs></defs>
    <g id="Page-1" stroke="none" stroke-width="1" fill="none" fill-rule="evenodd">
        <g id="Contact-us" transform="translate(-959.000000, -528.000000)" fill="#00C1D5">
            <g id="Left-Content" transform="translate(917.000000, 268.000000)">
                <g id="Group-4" transform="translate(41.000000, 207.000000)">
                    <g id="Phone" transform="translate(1.000000, 53.000000)">
                        <path d="M23.0864,17.5713324 L18.9670545,15.3783691 C17.5937455,14.6399038 17.5474182,15.1245442 16.1045818,16.6479984 C15.7554182,17.0173753 15.1037091,17.986656 14.3357818,17.8020757 C12.7298182,17.4096173 9.72785455,15.0785975 8.75025455,14.0167021 C8.28465455,13.508908 6.28327273,11.0852735 6.25992727,10.300573 C6.21367273,9.10026047 8.86647273,8.50014025 8.00538182,6.21506712 L6.16705455,2.12963334 C4.44487273,-1.79415748 -0.372727273,4.48395111 0.0229818182,7.41537968 C1.04690909,14.6399038 13.8235636,26.3193108 20.9451636,22.4646203 C22.5278545,21.5874494 24.6687273,18.5177479 23.0864,17.5713324 Z" id="Fill-5"></path>
                        <path d="M20.4099636,3.58377079 C18.1988364,1.39109597 15.1736,0.0525105189 11.8221818,0.0525105189 C11.4733091,0.0525105189 11.1241455,0.0755920657 10.7749818,0.098457223 C10.4258182,0.12153877 10.0767273,0.167773993 9.72785455,0.237018634 C9.42530909,0.283253857 9.21563636,0.583313965 9.28552727,0.860292527 C9.33207273,1.16035263 9.63469091,1.36801443 9.91389091,1.29869766 C10.0767273,1.27561611 10.2165091,1.25253456 10.3792727,1.2296694 C10.5423273,1.20658786 10.7050909,1.18350631 10.8682182,1.18350631 C11.1937455,1.16035263 11.4962909,1.13727109 11.8221818,1.13727109 C14.8477091,1.13727109 17.5937455,2.3606652 19.5954909,4.32252454 C21.5736,6.28438389 22.8071273,9.00815067 22.8071273,12.031689 L22.8071273,12.5394109 C22.8071273,12.6780445 22.7837818,12.8163895 22.7837818,12.9781046 C22.7605091,13.2781647 22.9931636,13.5551433 23.2957091,13.5782248 C23.5983273,13.6013785 23.8775273,13.3703466 23.9008727,13.0702144 C23.9241455,12.7242797 23.9474182,12.3779844 23.9474182,12.0547706 C23.9474182,8.75403727 22.5974545,5.75358044 20.4099636,3.58377079 Z" id="Fill-3"></path>
                        <path d="M16.5466182,12.2162693 C16.5,12.2855861 16.5,12.3548307 16.4767273,12.4473011 C16.4533818,12.7473613 16.6864,13.0243398 16.9889455,13.0474214 C17.2914909,13.0702144 17.5707636,12.839471 17.5937455,12.5394109 C17.5937455,12.4703827 17.5937455,12.4010659 17.6170182,12.2855861 L17.6170182,12.031689 C17.6170182,11.3622521 17.5008727,10.7161851 17.2914909,10.0929112 C17.0119273,9.28512923 16.5232727,8.56945702 15.9414545,7.96933681 C15.2201455,7.25395312 14.3357818,6.7459427 13.3349091,6.46896414 C12.8696,6.35370066 12.3573818,6.28438389 11.8687273,6.28438389 C11.7059636,6.28438389 11.5429091,6.28438389 11.3568,6.30753757 L10.8682182,6.37685434 C10.5656,6.42301743 10.356,6.72278902 10.4258182,7.0000561 C10.4724364,7.29982769 10.7749818,7.507778 11.0542545,7.43846123 C11.1937455,7.41537968 11.3102545,7.39229814 11.4500364,7.39229814 L11.5196364,7.39229814 C11.6360727,7.39229814 11.7525818,7.36914446 11.8687273,7.36914446 C13.1488727,7.36914446 14.3357818,7.87686636 15.1736,8.73117211 C16.0113455,9.56210779 16.5232727,10.6930315 16.5466182,11.9623723 L16.5466182,12.2162693 Z" id="Path"></path>
                        <path d="M19.6187636,12.7242797 C19.5954909,13.0243398 19.8281455,13.3013184 20.1306909,13.3243999 C20.4332364,13.3474815 20.7125091,13.1164496 20.7357818,12.8163895 C20.7591273,12.5624925 20.7591273,12.3086676 20.7591273,12.0547706 C20.7591273,11.5470487 20.7125091,11.0621919 20.6426182,10.5775516 C20.3400727,8.73117211 19.4323636,7.06908435 18.1525818,5.79981567 C16.6864,4.34560609 14.7312727,3.39919054 12.5670545,3.23776398 C12.3344,3.21468243 12.0781091,3.21468243 11.8454545,3.21468243 C11.5894545,3.21468243 11.3335273,3.21468243 11.0775273,3.23776398 C10.8216,3.260557 10.5656,3.28371068 10.3096727,3.32987377 C10.0071273,3.376109 9.79745455,3.6761691 9.86734545,3.95314767 C9.91389091,4.25320777 10.2165091,4.46086957 10.4957091,4.39184131 C10.6585455,4.36875977 10.7983273,4.34560609 10.9610909,4.32252454 C11.0309818,4.32252454 11.1008727,4.299443 11.1707636,4.299443 C11.4034182,4.27628932 11.6360727,4.27628932 11.8454545,4.27628932 C12.6369455,4.27628932 13.3815273,4.39184131 14.1028364,4.59950311 C15.3596364,4.96887998 16.4767273,5.63802845 17.3843636,6.53828091 C18.1292364,7.27703466 18.7344,8.1769986 19.1298182,9.14649569 C19.4789818,10.0235945 19.6883636,10.9931637 19.6883636,12.0086075 L19.6883636,12.2393508 C19.6417455,12.4241475 19.6187636,12.5624925 19.6187636,12.7242797 Z" id="Path"></path>
                    </g>
                </g>
            </g>
        </g>
    </g>
</svg>